<svg xmlns="http://www.w3.org/2000/svg" xmlns:xlink="http://www.w3.org/1999/xlink"><symbol viewBox="0 0 20 20" id="adult-diabetes" xmlns="http://www.w3.org/2000/svg"><g fill="none" fill-rule="evenodd" stroke="#41525D" stroke-width=".735"><path d="M19.633.367v19.265H.367V.367h19.265z"/><path d="M9.433 4.955h1.176-1.176zM8.46 6.75h3.08V3.173H8.46v3.576zM14.433 6.75H5.567V12.647a4.432 4.432 0 008.866 0V6.75z"/><path d="M11.107 10.663a1.107 1.107 0 01-2.214 0C8.893 10.052 10 8.4 10 8.4s1.107 1.652 1.107 2.263"/><path d="M13.134 12.341H6.852V8.055h6.282zM8.598 15.263a.89.89 0 11.001-1.78.89.89 0 01-.001 1.78m2.804 0a.89.89 0 11.001-1.78.89.89 0 01-.001 1.78"/></g></symbol><symbol viewBox="0 0 20 20" id="adult-obesity" xmlns="http://www.w3.org/2000/svg"><g fill="none" fill-rule="evenodd" stroke="#41525D" stroke-width=".735"><path d="M19.633.367v19.265H.367V.367h19.265z"/><path d="M6.977 4.837a1.72 1.72 0 11-3.44 0 1.72 1.72 0 013.44 0zM6.37 9.245l.463 1.75c.1.38.47.613.823.52.352-.093.587-.485.523-.872l-.466-2.798s-.039-.323-.107-.471c-.167-.362-.862-.817-1.516-.817H4.423c-.654 0-1.348.455-1.516.817-.068.148-.108.471-.108.471l-.464 2.798c-.064.387.17.78.523.872.352.093.723-.14.823-.52l.462-1.75"/><path d="M3.4 11.3l.095 4.637c.048.508.474.923.948.923.473 0 .861-.417.861-.926V12.75m0 0v3.185c0 .51.388.926.862.926s.9-.414.947-.922l-.088-4.689m8.578-6.412a1.72 1.72 0 11-3.44 0 1.72 1.72 0 013.44 0zm-3.622 5.23l-.742 1.42c-.19.418-.62.756-1.238.494-.394-.166-.608-.732-.457-1.166l.928-2.777.218-.523c.363-.58 1.01-.958 1.775-.958h1.417m1.902 3.51l.742 1.42c.19.418.62.756 1.238.494.394-.166.608-.732.457-1.166l-.928-2.777-.218-.523c-.363-.58-1.01-.958-1.775-.958h-1.417"/><path d="M10.96 11.877l.458 3.84c.065.629.648 1.143 1.296 1.143.65 0 1.18-.516 1.18-1.147v-1.818m0 0v1.817c0 .632.53 1.148 1.179 1.148.648 0 1.231-.514 1.296-1.142l.408-3.94"/></g></symbol><symbol viewBox="0 0 20 20" id="anaemia" xmlns="http://www.w3.org/2000/svg"><g fill="none" fill-rule="evenodd" stroke="#41525D" stroke-width=".735"><path d="M19.633.367v19.265H.367V.367h19.265z"/><path d="M8.886 6.592C9.831 4.974 10.684 3.7 10.684 3.7s3.314 5.73 3.387 5.89a15.88 15.88 0 01.39.905c.01.022.017.045.028.069.045.116.086.228.127.342.008.026.02.052.028.08.088.258.16.504.213.73l.018.09c.018.083.032.163.043.24l.013.087c.01.101.018.197.018.286a4.26 4.26 0 01-1.88 3.536c-.052.037-.106.065-.158.098-.066.04-.129.081-.193.118a4.256 4.256 0 01-2.388.495 4.265 4.265 0 01-3.914-4.248c0-.578.257-1.396.645-2.303"/><path d="M8.34 9.759c.56-.38.928-1.021.928-1.75 0-.043.027.177-.036-.302-.063-.477-.398-1.095-.398-1.095-.035-.079-.071-.153-.107-.227l-.004-.007L7.16 3.7S5.051 6.845 5.051 8.01a2.108 2.108 0 002.108 2.11c.365 0 .708-.093 1.007-.255.032-.018.063-.039.095-.058.025-.016.053-.03.078-.048"/></g></symbol><symbol viewBox="0 0 16.4 10.2" id="arrow-down.colors-sunset-coral-slate-blank" xmlns="http://www.w3.org/2000/svg"><path d="M8.2 9.3L1 2.1 2.1.9 8.2 7 14.3.9l1.1 1.2z"/></symbol><symbol viewBox="0 0 10.2 16.4" id="arrow-left.colors-sunset-coral-slate-blank" xmlns="http://www.w3.org/2000/svg"><path d="M.9 8.2L8.1 1l1.2 1.1-6.1 6.1 6.1 6.1-1.2 1.1z"/></symbol><symbol viewBox="0 0 10.2 16.4" id="arrow-right.colors-sunset-coral-slate-blank" xmlns="http://www.w3.org/2000/svg"><path d="M9.3 8.2l-7.2 7.2-1.2-1.1L7 8.2.9 2.1 2.1 1z"/></symbol><symbol viewBox="0 0 17.2 28.5" id="arrow-tail-down.colors-sunset-coral-slate-blank" xmlns="http://www.w3.org/2000/svg"><path d="M8.2 1.8v22L3 18.5l-1.1 1.1L9 26.8l7.1-7.2-1.1-1.1-5.2 5.3v-22z"/></symbol><symbol viewBox="0 0 28 19" id="arrow-tail-left.colors-sunset-coral-slate-blank" xmlns="http://www.w3.org/2000/svg"><path d="M27 8.7H5l5.3-5.2-1.2-1.1L2 9.5l7.1 7.1 1.2-1.1L5 10.3h22z"/></symbol><symbol viewBox="0 0 16.4 10.2" id="arrow-up.colors-sunset-coral-slate-blank" xmlns="http://www.w3.org/2000/svg"><path d="M8.2.9l7.2 7.2-1.1 1.2-6.1-6.1-6.1 6.1L1 8.1z"/></symbol><symbol fill="none" stroke="currentColor" stroke-width="2" stroke-linecap="round" stroke-linejoin="round" class="ajfeather ajfeather-calendar" viewBox="0 0 24 24" id="calendar" xmlns="http://www.w3.org/2000/svg"><rect x="3" y="4" width="18" height="18" rx="2" ry="2"/><path d="M16 2v4M8 2v4M3 10h18"/></symbol><symbol fill="none" stroke="currentColor" stroke-width="2" stroke-linecap="round" stroke-linejoin="round" class="akfeather akfeather-check-circle" viewBox="0 0 24 24" id="check-circle" xmlns="http://www.w3.org/2000/svg"><path d="M22 11.08V12a10 10 0 11-5.93-9.14"/><path d="M22 4L12 14.01l-3-3"/></symbol><symbol viewBox="0 0 700 700" id="checklist" xmlns="http://www.w3.org/2000/svg"><path d="M122.5 466.67a64.213 64.213 0 0064.168 64.164h326.66a64.219 64.219 0 0045.359-18.805 64.219 64.219 0 0018.809-45.359V93.33a64.213 64.213 0 00-64.168-64.164h-326.66a64.219 64.219 0 00-45.359 18.805A64.219 64.219 0 00122.5 93.33zm35-373.34a29.22 29.22 0 018.555-20.609 29.224 29.224 0 0120.613-8.555h326.66a29.222 29.222 0 0120.613 8.555 29.222 29.222 0 018.554 20.609v373.34a29.22 29.22 0 01-8.554 20.609 29.224 29.224 0 01-20.613 8.555h-326.66a29.222 29.222 0 01-20.613-8.555 29.222 29.222 0 01-8.555-20.609z"/><path d="M252 253.49a17.517 17.517 0 0012.367 5.11c4.637 0 9.082-1.837 12.367-5.11l62.301-62.16a17.506 17.506 0 005.348-12.43 17.508 17.508 0 00-5.121-12.531 17.492 17.492 0 00-12.523-5.129 17.482 17.482 0 00-12.438 5.336l-49.863 49.793-18.668-18.668a17.498 17.498 0 00-16.648-4.094 17.507 17.507 0 00-12.156 12.086 17.513 17.513 0 004 16.672zM396.67 235.27h93.332a17.498 17.498 0 0015.156-26.25 17.499 17.499 0 00-15.156-8.75H396.67a17.498 17.498 0 00-15.156 26.25 17.499 17.499 0 0015.156 8.75zM252 393.49a17.517 17.517 0 0012.367 5.11c4.637 0 9.082-1.837 12.367-5.11l62.301-62.16a17.506 17.506 0 004.297-16.781 17.512 17.512 0 00-12.246-12.258 17.494 17.494 0 00-16.785 4.285l-49.863 49.793-18.668-18.668a17.502 17.502 0 00-16.656-4.047 17.501 17.501 0 00-8.078 28.781zM396.67 375.27h93.332a17.498 17.498 0 0015.156-26.25 17.499 17.499 0 00-15.156-8.75H396.67a17.498 17.498 0 00-15.156 26.25 17.499 17.499 0 0015.156 8.75z"/></symbol><symbol fill="none" stroke="currentColor" stroke-width="2" stroke-linecap="round" stroke-linejoin="round" class="amfeather amfeather-circle" viewBox="0 0 24 24" id="circle" xmlns="http://www.w3.org/2000/svg"><circle cx="12" cy="12" r="10"/></symbol><symbol viewBox="0 0 96 96" id="cross.colors-sunset-coral-slate-concrete-blank" xmlns="http://www.w3.org/2000/svg"><path d="M48 4C23.7 4 4 23.699 4 48s19.7 44 44 44 44-19.699 44-44S72.3 4 48 4zm0 80c-19.882 0-36-16.118-36-36s16.118-36 36-36 36 16.118 36 36-16.118 36-36 36z"/><path d="M53.657 48l8.485-8.485a4 4 0 10-5.658-5.656L48 42.343l-8.485-8.484a4 4 0 00-5.657 5.656L42.343 48l-8.485 8.485a4 4 0 105.657 5.656L48 53.657l8.484 8.484a4 4 0 105.658-5.656L53.657 48z"/></symbol><symbol viewBox="0 0 68 84" id="error.colors-error-sunrise-blank" xmlns="http://www.w3.org/2000/svg"><path d="M33.8.038c-.2 0-.4.1-.6.1l-32 14c-.7.3-1.2 1.1-1.2 1.8 0 21.5 1.3 33.9 6.2 43.4 5 9.4 13.4 15.4 26.7 24.3.6.4 1.5.4 2.2 0 13.4-8.9 21.7-14.9 26.7-24.3 4.9-9.5 6.2-21.9 6.2-43.4 0-.8-.5-1.6-1.2-1.8l-32-14c-.3-.1-.6-.2-1-.1zm.2 4.1l30 13.1c0 20.5-1.4 32-5.7 40.3-4.3 8.1-11.7 13.7-24.2 22-12.5-8.4-19.9-13.9-24.2-22-4.3-8.3-5.7-19.8-5.7-40.3L34 4.138zm0 16.9c-2.8 0-5 2.2-5 5l1 18c0 2.2 1.8 4 4 4s4-1.8 4-4l1-18c0-2.8-2.3-5-5-5zm0 30c-2.8 0-5 2.2-5 5s2.3 5 5 5 5-2.2 5-5-2.3-5-5-5z"/></symbol><symbol viewBox="0 0 68 84" id="error.colors-error-sunrise-slate-blank" xmlns="http://www.w3.org/2000/svg"><path d="M33.8.038c-.2 0-.4.1-.6.1l-32 14c-.7.3-1.2 1.1-1.2 1.8 0 21.5 1.3 33.9 6.2 43.4 5 9.4 13.4 15.4 26.7 24.3.6.4 1.5.4 2.2 0 13.4-8.9 21.7-14.9 26.7-24.3 4.9-9.5 6.2-21.9 6.2-43.4 0-.8-.5-1.6-1.2-1.8l-32-14c-.3-.1-.6-.2-1-.1zm.2 4.1l30 13.1c0 20.5-1.4 32-5.7 40.3-4.3 8.1-11.7 13.7-24.2 22-12.5-8.4-19.9-13.9-24.2-22-4.3-8.3-5.7-19.8-5.7-40.3L34 4.138zm0 16.9c-2.8 0-5 2.2-5 5l1 18c0 2.2 1.8 4 4 4s4-1.8 4-4l1-18c0-2.8-2.3-5-5-5zm0 30c-2.8 0-5 2.2-5 5s2.3 5 5 5 5-2.2 5-5-2.3-5-5-5z"/></symbol><symbol viewBox="0 0 20 20" id="exclusive-breastfeeding" xmlns="http://www.w3.org/2000/svg"><g fill="none" fill-rule="evenodd" stroke="#41525D" stroke-width=".735"><path d="M19.633.367v19.265H.367V.367h19.265z"/><path d="M9.98 7.513a2.53 2.53 0 100-5.058 2.53 2.53 0 000 5.058"/><path stroke-linecap="round" stroke-linejoin="round" d="M14.753 12.72l-2.478-4.044c-.95-1.55-3.202-1.55-4.152 0l-2.487 4.052c-.824 1.345-.162 3.006 1.172 3.538-.015-1.154.97-2.155 2.312-2.42l-.688-.697a.664.664 0 01.007-.935l.006-.006a.663.663 0 01.933.007l.873.886a1.855 1.855 0 01-.15-.736c0-1.022 1.084-1.316 1.786-1.15.542.13 1.237 1.017 1.036 1.926-.043.195-.369 1.737-1.481 1.979a3.205 3.205 0 01-1.36-.005l-.08-.019-.005.003c-.84.076-1.49.652-1.52 1.337a.914.914 0 00.219.728c.29.334.79.477 1.177.179a8.78 8.78 0 00.347-.282c.245-.21.434-.39.434-.39s.22-.214.722-.241l1.304-.001c1.9-.004 3.066-2.087 2.073-3.708"/></g></symbol><symbol viewBox="0 0 19.2 17.6" id="external.colors-sunset-coral-slate-blank" xmlns="http://www.w3.org/2000/svg"><path d="M13.2 15H3.5V5.2h4.8V3.7H2v12.8h12.7v-6.4h-1.5z"/><path d="M11.4 1.1v1.5H15L9.7 8l1 1 5.1-5v3.1h1.5v-6z"/></symbol><symbol fill="none" stroke="currentColor" stroke-width="2" stroke-linecap="round" stroke-linejoin="round" class="asfeather asfeather-globe" viewBox="0 0 24 24" id="globe" xmlns="http://www.w3.org/2000/svg"><circle cx="12" cy="12" r="10"/><path d="M2 12h20M12 2a15.3 15.3 0 014 10 15.3 15.3 0 01-4 10 15.3 15.3 0 01-4-10 15.3 15.3 0 014-10z"/></symbol><symbol viewBox="0 0 32 32" id="link.colors-sunset-coral-slate-blank" xmlns="http://www.w3.org/2000/svg"><defs><path id="a" d="M0 0h32v32H0z"/></defs><clipPath id="b"><use xmlns:xlink="http://www.w3.org/1999/xlink" xlink:href="#a" overflow="visible"/></clipPath><g clip-path="url(#b)"><defs><path id="c" d="M0 0h32v32H0z"/></defs><clipPath id="d"><use xmlns:xlink="http://www.w3.org/1999/xlink" xlink:href="#c" overflow="visible"/></clipPath><path d="M19.584 10.981a6.486 6.486 0 00-.805-.688l-2.812 2.811-.082.123c.301.168.582.373.832.623l1.437 1.438a4.066 4.066 0 010 5.738l-5.742 5.742a4.032 4.032 0 01-2.871 1.176 4.038 4.038 0 01-2.867-1.176l-1.438-1.437a4.07 4.07 0 010-5.739l1.301-1.3a11.142 11.142 0 01-.914-4.827l-3.258 3.256c-3.156 3.158-3.152 8.322 0 11.477l1.438 1.439a8.085 8.085 0 005.738 2.367 8.08 8.08 0 005.742-2.367l5.742-5.744c3.153-3.154 3.153-8.318-.004-11.475l-1.437-1.437zM22.459 0a8.082 8.082 0 00-5.738 2.369l-5.746 5.742c-3.157 3.159-3.153 8.323 0 11.477l1.437 1.437c.258.258.547.459.824.674l2.797-2.795.082-.127a4.08 4.08 0 01-.832-.619l-1.437-1.437a4.07 4.07 0 010-5.738l5.742-5.743a4.047 4.047 0 012.871-1.179c1.086 0 2.105.422 2.867 1.177l1.438 1.44a4.066 4.066 0 010 5.738l-1.301 1.301a11.14 11.14 0 01.914 4.826l3.258-3.26c3.152-3.154 3.152-8.318-.004-11.474l-1.438-1.438A8.071 8.071 0 0022.459 0" clip-path="url(#d)"/></g></symbol><symbol viewBox="0 0 48 48" id="list.colors-sunset-coral-slate-blank" xmlns="http://www.w3.org/2000/svg"><path d="M8 21c-1.66 0-3 1.34-3 3s1.34 3 3 3 3-1.34 3-3-1.34-3-3-3zM8 9c-1.66 0-3 1.34-3 3s1.34 3 3 3 3-1.34 3-3-1.34-3-3-3zm0 24.33a2.67 2.67 0 10-.001 5.339A2.67 2.67 0 008 33.33zM14 38h28v-4H14v4zm0-12h28v-4H14v4zm0-16v4h28v-4H14z"/><path d="M0 0h48v48H0z" fill="none"/></symbol><symbol viewBox="0 0 22 22" id="low-birth-weight" xmlns="http://www.w3.org/2000/svg"><g fill="none" fill-rule="evenodd" stroke="#41525D" stroke-width=".735"><path d="M21 21H1V1h20z"/><path d="M10.263 8.548l-.057-.812C7.276 7.538 5.012 6.253 5.012 4.7h11.976c0 1.554-2.263 2.839-5.195 3.037l-.057.812h3.306l1.54 9.136H5.42l1.466-9.136h3.378z"/><path d="M12.028 12.932a1.028 1.028 0 10-2.057 0 1.028 1.028 0 002.057 0z"/><path d="M14.395 12.932a3.395 3.395 0 10-6.79-.001 3.395 3.395 0 006.79 0zM10.278 13.663l-.95.95"/></g></symbol><symbol viewBox="0 0 24 24" id="nodata.colors-sunset-coral-slate-concrete-blank" xmlns="http://www.w3.org/2000/svg"><g fill="none" fill-rule="evenodd"><path d="M5.437 3.73A10.462 10.462 0 0112.5 1C18.299 1 23 5.701 23 11.5c0 2.72-1.034 5.198-2.73 7.063L5.437 3.73zm-.707.707A10.462 10.462 0 002 11.5C2 17.299 6.701 22 12.5 22c2.72 0 5.198-1.034 7.063-2.73L4.73 4.437zM1 11.5C1 5.149 6.149 0 12.5 0S24 5.149 24 11.5 18.851 23 12.5 23 1 17.851 1 11.5z" fill="#000"/></g></symbol><symbol fill="none" stroke="currentColor" stroke-width="2" stroke-linecap="round" stroke-linejoin="round" class="axfeather axfeather-plus-circle" viewBox="0 0 24 24" id="plus-circle" xmlns="http://www.w3.org/2000/svg"><circle cx="12" cy="12" r="10"/><path d="M12 8v8M8 12h8"/></symbol><symbol viewBox="0 0 20 20" id="raised-blood-pressure" xmlns="http://www.w3.org/2000/svg"><g fill="none" fill-rule="evenodd" stroke="#41525D" stroke-width=".735"><path d="M19.633.367v19.265H.367V.367h19.265z"/><g stroke-linejoin="round"><path d="M10.045 10.797a.797.797 0 10-.074-1.592.797.797 0 00.074 1.592z"/><path d="M12.641 10a2.634 2.634 0 10-5.268.001 2.634 2.634 0 005.268 0z"/></g><path stroke-linejoin="round" d="M9.415 9.467l-.77-.701"/><path d="M3.646 4.74a3.688 3.688 0 000 5.206l6.35 6.396 6.358-6.39a3.686 3.686 0 000-5.205 3.64 3.64 0 00-5.18 0l-1.17 1.176L8.825 4.74a3.64 3.64 0 00-5.18 0z"/></g></symbol><symbol viewBox="0 0 0 0" id="renders-sprite" xmlns="http://www.w3.org/2000/svg"/><symbol viewBox="0 0 32 32" id="search.colors-sunset-coral-slate-blank" xmlns="http://www.w3.org/2000/svg"><defs><path id="a" d="M0 0h32v32H0z"/></defs><clipPath id="b"><use xmlns:xlink="http://www.w3.org/1999/xlink" xlink:href="#a" overflow="visible"/></clipPath><g clip-path="url(#b)"><defs><path id="c" d="M0 0h32v32H0z"/></defs><clipPath id="d"><use xmlns:xlink="http://www.w3.org/1999/xlink" xlink:href="#c" overflow="visible"/></clipPath><path d="M.879 31.121C1.465 31.707 2.232 32 3 32s1.535-.293 2.121-.879l7.065-7.066A12.903 12.903 0 0019 26c7.18 0 13-5.82 13-13S26.18 0 19 0 6 5.82 6 13c0 2.5.719 4.832 1.943 6.813L.879 26.879a2.998 2.998 0 000 4.242M11 13c0-4.41 3.588-8 8-8 4.41 0 8 3.59 8 8s-3.59 8-8 8c-4.412 0-8-3.59-8-8" clip-path="url(#d)"/></g></symbol><symbol viewBox="0 0 20 20" id="sodium-intake" xmlns="http://www.w3.org/2000/svg"><g fill="none" fill-rule="evenodd"><path stroke="#41525D" stroke-width=".735" d="M19.633.367v19.265H.367V.367h19.265z"/><path stroke="#41525D" stroke-width=".735" d="M13.384 9.564H6.617a.439.439 0 01-.44-.439v-.12a.44.44 0 01.44-.44h6.767a.44.44 0 01.44.44v.12a.439.439 0 01-.44.44M10.001 5.72c-1.888 0-3.42 1.106-3.42 2.844h6.839c0-1.738-1.53-2.844-3.42-2.844m3.519 3.843H6.483l-.49 5.275a1.338 1.338 0 001.346 1.42h5.322c.782 0 1.4-.652 1.348-1.42l-.49-5.275z"/><path fill="#41525D" d="M8.666 13.99l.404-.495c.271.33.643.495.968.495.415 0 .628-.182.628-.459 0-.329-.25-.436-.729-.606-.575-.202-1.144-.457-1.144-1.149 0-.59.542-1.053 1.197-1.053.447-.005.867.16 1.25.463l-.383.505c-.308-.255-.611-.388-.867-.388-.292 0-.526.16-.532.441-.005.277.25.373.708.549.649.255 1.17.43 1.17 1.16 0 .781-.697 1.132-1.304 1.132-.484 0-.973-.186-1.366-.595m.075-6.357a.373.373 0 110-.746.373.373 0 010 .746m1.196 0a.373.373 0 11.001-.746.373.373 0 010 .746m1.196 0a.373.373 0 11.001-.746.373.373 0 010 .746M8.74 5.026a.373.373 0 110-.745.373.373 0 010 .745m1.196 0a.373.373 0 11.001-.745.373.373 0 010 .745m-.599-.996a.373.373 0 110-.745.373.373 0 010 .745m1.197 0a.373.373 0 110-.745.373.373 0 010 .745m.598.996a.373.373 0 11.001-.745.373.373 0 010 .745"/></g></symbol><symbol viewBox="0 0 77.2 77.2" id="success.colors-success-aqua-sky-blank-slate" xmlns="http://www.w3.org/2000/svg"><path d="M58.1 27.4l-2.9-3-22.5 22.5-12.3-12.4-3 3 15.3 15.3 25.4-25.4zM38.6 77.2c21.3 0 38.6-17.3 38.6-38.6S59.9 0 38.6 0 0 17.3 0 38.6s17.3 38.6 38.6 38.6zm0-73C57.5 4.2 73 19.6 73 38.6S57.5 73 38.6 73 4.2 57.5 4.2 38.6 19.7 4.2 38.6 4.2z"/></symbol><symbol viewBox="0 0 77.2 77.2" id="success.colors-success-aqua-sky-slate-blank" xmlns="http://www.w3.org/2000/svg"><path d="M58.1 27.4l-2.9-3-22.5 22.5-12.3-12.4-3 3 15.3 15.3 25.4-25.4zM38.6 77.2c21.3 0 38.6-17.3 38.6-38.6S59.9 0 38.6 0 0 17.3 0 38.6s17.3 38.6 38.6 38.6zm0-73C57.5 4.2 73 19.6 73 38.6S57.5 73 38.6 73 4.2 57.5 4.2 38.6 19.7 4.2 38.6 4.2z"/></symbol><symbol viewBox="0 0 436.38 436.38" id="tag" xmlns="http://www.w3.org/2000/svg"><path d="M340.38 23.224H206.396a32.01 32.01 0 00-22.624 9.376L9.372 206.968c-12.496 12.496-12.496 32.752 0 45.264l133.984 133.984c12.496 12.496 32.752 12.496 45.248 0l174.4-174.368c6-6.016 9.376-14.16 9.376-22.656V55.224c0-17.68-14.32-32-32-32zm-56 112c-13.248 0-24-10.752-24-24s10.752-24 24-24 24 10.752 24 24-10.752 24-24 24z"/><path d="M404.38 55.224l-.016 148.944a27.79 27.79 0 01-8.16 19.68L218.988 401.064l2.72 2.72c12.496 12.496 32.752 12.496 45.248 0l160.032-160a31.959 31.959 0 009.392-22.624V87.224c0-17.68-14.32-32-32-32z"/></symbol><symbol viewBox="0 0 24 24" id="test" xmlns="http://www.w3.org/2000/svg"><path d="M12 0c1.1 0 2 .9 2 2v8h8c1.1 0 2 .9 2 2s-.9 2-2 2h-8v8c0 1.1-.9 2-2 2s-2-.9-2-2v-8H2c-1.1 0-2-.9-2-2s.9-2 2-2h8V2c0-1.1.9-2 2-2"/></symbol><symbol viewBox="0 0 20 20" id="under-5-overweight" xmlns="http://www.w3.org/2000/svg"><g fill="none" fill-rule="evenodd" stroke="#41525D" stroke-width=".735"><path d="M19.633.367v19.265H.367V.367h19.265z"/><path d="M15.049 5.52a1.493 1.493 0 11-2.986-.002 1.493 1.493 0 012.986.001zm-3.795 5.855l.36 3.583c.05.545.508.99 1.017.99.509 0 .925-.446.925-.994v-1.577"/><path d="M11.945 10.056l-.643 1.232c-.165.363-.576.534-.913.38-.338-.153-.507-.586-.375-.963l.943-2.408.188-.455c.315-.502.876-.83 1.54-.83h1.742c.64 0 1.186.306 1.507.778 0 0 .17.333.23.507l.942 2.408c.132.377-.037.81-.375.964-.337.153-.747-.018-.913-.381l-.659-1.232"/><path d="M13.556 13.377v1.577c0 .547.417.995.925.995.51 0 .967-.446 1.018-.991l.32-3.67M7.232 5.764a1.564 1.564 0 11-3.128.001 1.564 1.564 0 013.128 0zm-3.459 5.343l.368 3.914c.04.428.4.778.8.778s.726-.351.726-.781v-2.689"/><path d="M4.495 9.62l-.599 1.316c-.13.285-.452.42-.718.298-.264-.12-.396-.46-.294-.756l.741-2.14.148-.357a1.408 1.408 0 011.21-.653h1.369c.504 0 .932.24 1.183.612 0 0 .135.261.182.398l.74 2.14c.103.296-.03.636-.294.756-.265.121-.588-.013-.718-.298L6.847 9.62"/><path d="M5.668 12.33v2.687c0 .43.327.783.726.783.401 0 .76-.35.8-.779l.373-3.956M0 2.3h20M0 17.7h20"/></g></symbol><symbol viewBox="0 0 20 20" id="under-5-stunting" xmlns="http://www.w3.org/2000/svg"><g fill="none" fill-rule="evenodd" stroke="#41525D" stroke-width=".735"><path d="M19.633.367v19.265H.367V.367h19.265zM0 2.3h20M0 17.7h20"/><path d="M8.162 5.764a1.564 1.564 0 11-3.128 0 1.564 1.564 0 013.128 0zm-3.458 5.343l.368 3.914c.04.428.4.778.8.778.399 0 .726-.351.726-.781v-2.689"/><path d="M5.426 9.62l-.6 1.316c-.129.284-.452.419-.717.298-.264-.12-.397-.46-.295-.756l.742-2.14.148-.357a1.408 1.408 0 011.21-.653h1.369c.503 0 .932.24 1.183.612 0 0 .134.261.182.397l.74 2.141c.103.296-.03.635-.295.756-.265.12-.588-.014-.717-.298L7.778 9.62"/><path d="M6.598 12.33v2.687c0 .43.327.782.727.782.4 0 .76-.35.8-.778l.372-3.956m6.463-3.852a1.564 1.564 0 11-3.128 0 1.564 1.564 0 013.128 0zm-3.373 4.992l.282 2.816c.04.428.4.779.8.779s.727-.353.727-.783v-1.239"/><path d="M12.13 11.17l-.506.967c-.13.285-.452.42-.717.299-.264-.121-.398-.462-.295-.757l.741-1.892.149-.357a1.408 1.408 0 011.21-.653h1.368c.504 0 .932.24 1.184.612 0 0 .134.261.181.398l.74 1.892c.104.295-.029.636-.294.757-.265.12-.588-.014-.718-.299l-.518-.968"/><path d="M13.396 13.778v1.24c0 .43.327.781.727.781.4 0 .76-.35.799-.779l.251-2.883"/></g></symbol><symbol viewBox="0 0 20 20" id="under-5-wasting" xmlns="http://www.w3.org/2000/svg"><g fill="none" fill-rule="evenodd" stroke="#41525D" stroke-width=".735"><path d="M19.633.367v19.265H.367V.367h19.265zM0 2.3h20M0 17.7h20"/><path d="M8.162 5.764a1.564 1.564 0 11-3.128 0 1.564 1.564 0 013.128 0zm-3.458 5.343l.368 3.914c.04.428.4.778.8.778.399 0 .726-.351.726-.781v-2.689"/><path d="M5.426 9.62l-.6 1.316c-.129.284-.452.419-.717.298-.264-.12-.397-.46-.295-.756l.742-2.14.148-.357a1.408 1.408 0 011.21-.653h1.369c.503 0 .932.24 1.183.612 0 0 .134.261.182.397l.74 2.141c.103.296-.03.635-.295.756-.265.12-.588-.014-.717-.298L7.778 9.62"/><path d="M6.598 12.33v2.687c0 .43.327.782.727.782.4 0 .76-.35.8-.778l.372-3.956m7.03-5.3a1.564 1.564 0 11-3.128 0 1.564 1.564 0 013.128 0zm-2.89 5.272l.064 3.903c.027.625.388.86.66.86.225 0 .603-.237.603-.654V13.06"/><path d="M13.306 9.882l-.506 1.036c-.13.305-.453.449-.718.32-.264-.128-.397-.494-.294-.81l.741-2.027.148-.38c.248-.423.689-.7 1.21-.7h.192c.505 0 .932.258 1.185.655 0 0 .133.28.18.425l.742 2.027c.103.316-.03.682-.295.81-.265.129-.588-.015-.718-.32l-.518-1.036"/><path d="M13.963 12.851v2.234c0 .57.403.714.684.714.201 0 .612-.123.612-.92v-3.927"/></g></symbol><symbol viewBox="0 0 90 80.3" id="warning.colors-warning" xmlns="http://www.w3.org/2000/svg"><path d="M81.2 80.3H8.8c-3.2 0-6-1.6-7.6-4.4-1.6-2.7-1.6-6 0-8.7L37.4 4.4C39 1.7 41.8 0 45 0c3.2 0 6 1.6 7.6 4.4l36.2 62.8c1.6 2.7 1.6 6 0 8.7-1.6 2.8-4.4 4.4-7.6 4.4zM6.9 70.5c-.6 1-.2 1.9 0 2.2.2.3.8 1.1 1.9 1.1h72.5c1.1 0 1.7-.8 1.9-1.1.2-.3.6-1.2 0-2.2L46.9 7.7c-.6-1-1.5-1.1-1.9-1.1s-1.3.1-1.9 1.1L6.9 70.5zm38.1-14c-1.8 0-3-1.5-3-3.3V25.7c0-1.8 1.2-3.3 3-3.3s3 1.5 3 3.3v27.5c0 1.8-1.2 3.3-3 3.3zm0 4.6c2.2 0 3.9 1.7 3.9 3.9s-1.7 3.9-3.9 3.9-3.9-1.7-3.9-3.9 1.7-3.9 3.9-3.9z"/></symbol></svg>
